<?xml version="1.0" encoding="UTF-8" standalone="no"?>
<!-- Created with Inkscape (http://www.inkscape.org/) -->

<svg
   xmlns:dc="http://purl.org/dc/elements/1.1/"
   xmlns:cc="http://creativecommons.org/ns#"
   xmlns:rdf="http://www.w3.org/1999/02/22-rdf-syntax-ns#"
   xmlns:svg="http://www.w3.org/2000/svg"
   xmlns="http://www.w3.org/2000/svg"
   xmlns:xlink="http://www.w3.org/1999/xlink"
   xmlns:sodipodi="http://sodipodi.sourceforge.net/DTD/sodipodi-0.dtd"
   xmlns:inkscape="http://www.inkscape.org/namespaces/inkscape"
   width="512"
   height="512"
   id="svg2"
   version="1.1"
   inkscape:version="0.48.2 r9819"
   sodipodi:docname="PDFToolKit.svg">
  <defs
     id="defs4">
    <linearGradient
       id="linearGradient5067">
      <stop
         id="stop5069"
         offset="0"
         style="stop-color:#fff5f5;stop-opacity:0.3137255;" />
      <stop
         style="stop-color:#fff5f5;stop-opacity:0.29411766;"
         offset="0.67899877"
         id="stop5075" />
      <stop
         style="stop-color:#fff5f5;stop-opacity:0.23529412;"
         offset="0.67899877"
         id="stop5073" />
      <stop
         id="stop5071"
         offset="1"
         style="stop-color:#fff5f5;stop-opacity:0;" />
    </linearGradient>
    <linearGradient
       id="linearGradient3803">
      <stop
         style="stop-color:#ff0000;stop-opacity:1"
         offset="0"
         id="stop3805" />
      <stop
         style="stop-color:#aa0000;stop-opacity:1"
         offset="1"
         id="stop3807" />
    </linearGradient>
    <linearGradient
       id="linearGradient3791">
      <stop
         style="stop-color:#ff8080;stop-opacity:1"
         offset="0"
         id="stop3793" />
      <stop
         style="stop-color:#800000;stop-opacity:1"
         offset="1"
         id="stop3795" />
    </linearGradient>
    <linearGradient
       id="linearGradient3003">
      <stop
         style="stop-color:#ffffff;stop-opacity:1;"
         offset="0"
         id="stop3005" />
      <stop
         style="stop-color:#ffffff;stop-opacity:0;"
         offset="1"
         id="stop3007" />
    </linearGradient>
    <linearGradient
       id="linearGradient2989">
      <stop
         style="stop-color:#d40000;stop-opacity:0.33725491;"
         offset="0"
         id="stop2991" />
      <stop
         id="stop2999"
         offset="0.07076919"
         style="stop-color:#d50505;stop-opacity:0.29411766;" />
      <stop
         id="stop2997"
         offset="0.66716826"
         style="stop-color:#d50505;stop-opacity:0.23529412;" />
      <stop
         style="stop-color:#d20101;stop-opacity:0;"
         offset="1"
         id="stop2993" />
    </linearGradient>
    <linearGradient
       inkscape:collect="always"
       xlink:href="#linearGradient3791"
       id="linearGradient3797"
       x1="23.825031"
       y1="996.26257"
       x2="23.825031"
       y2="1009.0018"
       gradientUnits="userSpaceOnUse"
       gradientTransform="translate(-3.2202149e-7,-2.6203124e-6)" />
    <radialGradient
       inkscape:collect="always"
       xlink:href="#linearGradient3803"
       id="radialGradient3809"
       cx="27.777456"
       cy="1023.252"
       fx="27.777456"
       fy="1023.252"
       r="28"
       gradientUnits="userSpaceOnUse"
       gradientTransform="matrix(1.31608,-2.209822e-6,-7.2164013e-7,1.1264597,-8.4458991,-128.89039)" />
    <radialGradient
       spreadMethod="pad"
       gradientTransform="matrix(45.124908,0,0,-45.124908,74.972946,125.50104)"
       gradientUnits="userSpaceOnUse"
       xlink:href="#radialGradient4453"
       id="radialGradient8118"
       fy="0"
       fx="0"
       r="1"
       cy="0"
       cx="0" />
    <clipPath
       id="clipPath4469">
      <path
         id="path4471"
         d="m 72.143,83.228 46.357,0 0,44.572 -46.357,0 0,-44.572 z"
         inkscape:connector-curvature="0" />
    </clipPath>
    <radialGradient
       spreadMethod="pad"
       gradientTransform="matrix(45.124908,0,0,-45.124908,74.972946,125.50104)"
       gradientUnits="userSpaceOnUse"
       id="radialGradient4453"
       fy="0"
       fx="0"
       r="1"
       cy="0"
       cx="0">
      <stop
         offset="0"
         style="stop-color:#ffffff;stop-opacity:1"
         id="stop4455" />
      <stop
         offset="0.80999798"
         style="stop-color:#ebeaea;stop-opacity:1"
         id="stop4457" />
      <stop
         offset="0.80999798"
         style="stop-color:#ebeaea;stop-opacity:1"
         id="stop4459" />
      <stop
         offset="1"
         style="stop-color:#d4d3d4;stop-opacity:1"
         id="stop4461" />
    </radialGradient>
    <clipPath
       id="clipPath4433">
      <path
         id="path4435"
         d="m 88.101,120.63 c -0.493,-1.821 0.059,-4.639 0.981,-8.147 l 0,0 -0.28,-0.68 c -0.705,-1.72 -1.587,-3.434 -2.363,-4.955 l 0,0 C 83.234,100.579 80.743,97.197 79.08,96.96 l 0,0 -0.006,0.068 c -0.036,0.783 1.408,2.799 3.364,4.402 l 0,0 c 0.203,0.164 1.074,1.007 1.074,1.007 l 0,0 c 0,0 -1.175,-0.62 -1.439,-0.781 l 0,0 c -2.451,-1.463 -3.67,-2.929 -3.87,-3.903 l 0,0 c -0.059,-0.288 -0.021,-0.642 0.235,-0.789 l 0,0 0.627,-0.315 c 0.238,-0.119 0.482,-0.178 0.736,-0.178 l 0,0 c 1.567,0 3.455,2.25 5.855,6.457 l 0,0 c 2.838,0.931 6.38,1.808 9.604,2.283 l 0,0 c 2.444,-1.396 5.192,-2.173 6.75,-2.173 l 0,0 c 0.281,0 0.523,0.026 0.718,0.077 l 0,0 c 0.241,0.065 0.497,0.255 0.626,0.431 l 0,0 c 0.103,0.159 0.244,0.804 0.244,0.804 l 0,0 c 0,0 -0.238,-0.326 -0.435,-0.422 l 0,0 c -0.156,-0.074 -0.378,-0.109 -0.652,-0.109 l 0,0 c -1.14,0 -3.199,0.611 -5.301,1.639 l 0,0 c 1.064,0.114 2.045,0.176 2.889,0.176 l 0,0 c 0.944,0 1.717,-0.077 2.247,-0.247 l 0,0 c 1.276,-0.407 1.276,-0.824 1.26,-0.91 l 0,0 c 0.016,0.069 0.075,0.35 0.067,0.468 l 0,0 c -0.028,0.307 -0.123,0.579 -0.355,0.806 l 0,0 c -0.471,0.465 -1.638,0.7 -3.226,0.721 l 0,0 c -0.07,0.001 -0.141,0.001 -0.213,0.001 l 0,0 c -1.151,0 -2.509,-0.107 -3.977,-0.317 l 0,0 c -0.713,0.411 -1.468,0.861 -2.064,1.419 l 0,0 c -1.514,1.414 -2.783,3.378 -3.571,5.579 l 0,0 c 0.054,0.212 0.106,0.417 0.153,0.626 l 0,0 c 0.219,0.984 0.376,4.241 0.376,4.241 l 0,0 c 0,0 -0.623,-2.447 -0.721,-2.816 l 0,0 c -0.063,-0.234 -0.142,-0.483 -0.233,-0.745 l 0,0 c -0.477,1.681 -0.721,3.309 -0.721,4.545 l 0,0 c 0,0.349 0.032,1.028 0.13,1.563 l 0,0 c 0.048,0.384 0.188,0.584 0.332,0.679 l 0,0 c 0.285,-0.068 0.604,-0.506 0.936,-1.237 l 0,0 c 0.286,-0.632 0.268,-1.365 0.268,-1.817 l 0,0 c 0,0 0.307,1.122 0.236,1.785 l 0,0 c -0.043,0.395 -0.418,1.41 -1.215,1.41 l 0,0 c -0.004,0 -0.009,0 -0.013,0 l 0,0 -0.004,0 -0.003,0 -0.009,0 -0.002,0 -0.015,0 -0.033,0 -0.356,0.005 c -0.589,0 -1.139,-0.288 -1.272,-0.763 m -0.647,-14.301 c 1.035,1.959 1.664,3.47 2.193,4.893 l 0,0 c 0.831,-1.676 1.981,-3.266 3.487,-4.542 l 0,0 c 0.337,-0.284 0.694,-0.554 1.062,-0.808 l 0,0 c -2.737,-0.509 -5.612,-1.225 -8.284,-2.344 l 0,0 c 0.484,0.859 1.007,1.792 1.542,2.801"
         inkscape:connector-curvature="0" />
    </clipPath>
    <clipPath
       id="clipPath4421">
      <path
         id="path4423"
         d="m 73.381,91.53 33.944,0 0,4.875 -33.944,0 0,-4.875 z"
         inkscape:connector-curvature="0" />
    </clipPath>
    <clipPath
       id="clipPath4409">
      <path
         id="path4411"
         d="m 73.381,96.337 33.944,0 0,29.138 -33.944,0 0,-29.138 z m 13.058,10.511 c 0.776,1.521 1.658,3.235 2.363,4.955 l 0,0 0.28,0.68 c -0.922,3.508 -1.474,6.326 -0.981,8.147 l 0,0 c 0.133,0.475 0.683,0.763 1.272,0.763 l 0,0 0.356,-0.005 0.033,0 0.015,0 0.002,0 0.009,0 0.003,0 0.004,0 c 0.004,0 0.009,0 0.013,0 l 0,0 c 0.797,0 1.172,-1.015 1.215,-1.41 l 0,0 c 0.071,-0.663 -0.236,-1.785 -0.236,-1.785 l 0,0 c 0,0.452 0.018,1.185 -0.268,1.817 l 0,0 c -0.332,0.731 -0.651,1.169 -0.936,1.237 l 0,0 c -0.144,-0.095 -0.284,-0.295 -0.332,-0.679 l 0,0 c -0.098,-0.535 -0.13,-1.214 -0.13,-1.563 l 0,0 c 0,-1.236 0.244,-2.864 0.721,-4.545 l 0,0 c 0.091,0.262 0.17,0.511 0.233,0.745 l 0,0 c 0.098,0.369 0.721,2.816 0.721,2.816 l 0,0 c 0,0 -0.157,-3.257 -0.376,-4.241 l 0,0 c -0.047,-0.209 -0.099,-0.414 -0.153,-0.626 l 0,0 c 0.788,-2.201 2.057,-4.165 3.571,-5.579 l 0,0 c 0.596,-0.558 1.351,-1.008 2.064,-1.419 l 0,0 c 1.468,0.21 2.826,0.317 3.977,0.317 l 0,0 c 0.072,0 0.143,0 0.213,-0.001 l 0,0 c 1.588,-0.021 2.755,-0.256 3.226,-0.721 l 0,0 c 0.232,-0.227 0.327,-0.499 0.355,-0.806 l 0,0 c 0.008,-0.118 -0.051,-0.399 -0.067,-0.468 l 0,0 c 0.016,0.086 0.016,0.503 -1.26,0.91 l 0,0 c -0.53,0.17 -1.303,0.247 -2.247,0.247 l 0,0 c -0.844,0 -1.825,-0.062 -2.889,-0.176 l 0,0 c 2.102,-1.028 4.161,-1.639 5.301,-1.639 l 0,0 c 0.274,0 0.496,0.035 0.652,0.109 l 0,0 c 0.197,0.096 0.435,0.422 0.435,0.422 l 0,0 c 0,0 -0.141,-0.645 -0.244,-0.804 l 0,0 c -0.129,-0.176 -0.385,-0.366 -0.626,-0.431 l 0,0 c -0.195,-0.051 -0.437,-0.077 -0.718,-0.077 l 0,0 c -1.558,0 -4.306,0.777 -6.75,2.173 l 0,0 c -3.224,-0.475 -6.766,-1.352 -9.604,-2.283 l 0,0 c -2.4,-4.207 -4.288,-6.457 -5.855,-6.457 l 0,0 c -0.254,0 -0.498,0.059 -0.736,0.178 l 0,0 -0.627,0.315 c -0.256,0.147 -0.294,0.501 -0.235,0.789 l 0,0 c 0.2,0.974 1.419,2.44 3.87,3.903 l 0,0 c 0.264,0.161 1.439,0.781 1.439,0.781 l 0,0 c 0,0 -0.871,-0.843 -1.074,-1.007 l 0,0 c -1.956,-1.603 -3.4,-3.619 -3.364,-4.402 l 0,0 0.006,-0.068 c 1.663,0.237 4.154,3.619 7.359,9.888 m 1.015,-0.519 c -0.535,-1.009 -1.058,-1.942 -1.542,-2.801 l 0,0 c 2.672,1.119 5.547,1.835 8.284,2.344 l 0,0 c -0.368,0.254 -0.725,0.524 -1.062,0.808 l 0,0 c -1.506,1.276 -2.656,2.866 -3.487,4.542 l 0,0 c -0.529,-1.423 -1.158,-2.934 -2.193,-4.893"
         inkscape:connector-curvature="0" />
    </clipPath>
    <radialGradient
       r="17.6875"
       fy="39.125"
       fx="24.8125"
       cy="39.125"
       cx="24.8125"
       gradientTransform="matrix(1,0,0,0.374558,0,24.47041)"
       gradientUnits="userSpaceOnUse"
       id="radialGradient2260"
       xlink:href="#linearGradient3041"
       inkscape:collect="always" />
    <linearGradient
       gradientUnits="userSpaceOnUse"
       y2="9.6568537"
       x2="40.859177"
       y1="19.821514"
       x1="31.177404"
       id="linearGradient2256"
       xlink:href="#linearGradient2250"
       inkscape:collect="always" />
    <linearGradient
       gradientTransform="matrix(0.878099,-0.0173237,0.0173237,0.878099,2.163687,4.067899)"
       gradientUnits="userSpaceOnUse"
       y2="38.268368"
       x2="15.415793"
       y1="36.942543"
       x1="14.017542"
       id="linearGradient2271"
       xlink:href="#linearGradient2265"
       inkscape:collect="always" />
    <linearGradient
       gradientTransform="matrix(1.007254,-0.02636526,0.02636526,1.007254,1.593411,0.079191)"
       gradientUnits="userSpaceOnUse"
       y2="33.194965"
       x2="10.650805"
       y1="35.688461"
       x1="12.004697"
       id="linearGradient2263"
       xlink:href="#linearGradient2257"
       inkscape:collect="always" />
    <linearGradient
       gradientTransform="matrix(0.87827,0,0,0.87827,2.536988,4.967681)"
       gradientUnits="userSpaceOnUse"
       y2="39.443218"
       x2="16.915297"
       y1="32.28376"
       x1="9.7503242"
       id="linearGradient3093"
       xlink:href="#linearGradient3087"
       inkscape:collect="always" />
    <linearGradient
       gradientTransform="matrix(0.87827,0,0,0.87827,2.847503,5.588712)"
       gradientUnits="userSpaceOnUse"
       y2="6.6285896"
       x2="37.53537"
       y1="13.602527"
       x1="38.227654"
       id="linearGradient3083"
       xlink:href="#linearGradient3077"
       inkscape:collect="always" />
    <linearGradient
       gradientTransform="matrix(0.87827,0,0,0.87827,5.328299,1.650243)"
       gradientUnits="userSpaceOnUse"
       y2="-4.3002653"
       x2="25.291086"
       y1="-3.6324477"
       x1="50.152931"
       id="linearGradient3067"
       xlink:href="#linearGradient3061"
       inkscape:collect="always" />
    <linearGradient
       gradientTransform="matrix(0.87827,0,0,0.87827,2.536988,4.967681)"
       gradientUnits="userSpaceOnUse"
       y2="6.7758031"
       x2="20.631224"
       y1="42.253601"
       x1="19.648342"
       id="linearGradient3055"
       xlink:href="#linearGradient3049"
       inkscape:collect="always" />
    <radialGradient
       gradientUnits="userSpaceOnUse"
       gradientTransform="matrix(1,0,0,0.374558,0,24.47041)"
       r="17.6875"
       fy="39.125"
       fx="24.8125"
       cy="39.125"
       cx="24.8125"
       id="radialGradient3047"
       xlink:href="#linearGradient3041"
       inkscape:collect="always" />
    <linearGradient
       id="linearGradient3041"
       inkscape:collect="always">
      <stop
         id="stop3043"
         offset="0"
         style="stop-color:#000000;stop-opacity:1;" />
      <stop
         id="stop3045"
         offset="1"
         style="stop-color:#000000;stop-opacity:0;" />
    </linearGradient>
    <linearGradient
       id="linearGradient3049">
      <stop
         id="stop3051"
         offset="0"
         style="stop-color:#b6b6b6;stop-opacity:1;" />
      <stop
         style="stop-color:#f2f2f2;stop-opacity:1;"
         offset="0.5"
         id="stop2262" />
      <stop
         id="stop2264"
         offset="0.67612958"
         style="stop-color:#fafafa;stop-opacity:1;" />
      <stop
         style="stop-color:#d8d8d8;stop-opacity:1;"
         offset="0.84051722"
         id="stop2268" />
      <stop
         style="stop-color:#f2f2f2;stop-opacity:1;"
         offset="0.875"
         id="stop2266" />
      <stop
         id="stop3053"
         offset="1"
         style="stop-color:#dbdbdb;stop-opacity:1;" />
    </linearGradient>
    <linearGradient
       id="linearGradient3061">
      <stop
         id="stop3063"
         offset="0"
         style="stop-color:#ffffff;stop-opacity:1;" />
      <stop
         id="stop3065"
         offset="1"
         style="stop-color:#000000;stop-opacity:1;" />
    </linearGradient>
    <linearGradient
       id="linearGradient3077">
      <stop
         id="stop3079"
         offset="0"
         style="stop-color:#98a0a9;stop-opacity:1;" />
      <stop
         id="stop3081"
         offset="1"
         style="stop-color:#c3d0dd;stop-opacity:1;" />
    </linearGradient>
    <linearGradient
       id="linearGradient3087">
      <stop
         id="stop3089"
         offset="0"
         style="stop-color:#3465a4;stop-opacity:1;" />
      <stop
         style="stop-color:#9fbce1;stop-opacity:1;"
         offset="0"
         id="stop3095" />
      <stop
         id="stop2242"
         offset="0"
         style="stop-color:#6b95ca;stop-opacity:1;" />
      <stop
         style="stop-color:#3d6aa5;stop-opacity:1;"
         offset="0.75"
         id="stop2244" />
      <stop
         id="stop3091"
         offset="1"
         style="stop-color:#386eb4;stop-opacity:1;" />
    </linearGradient>
    <linearGradient
       id="linearGradient2257"
       inkscape:collect="always">
      <stop
         id="stop2259"
         offset="0"
         style="stop-color:#ffffff;stop-opacity:1;" />
      <stop
         id="stop2261"
         offset="1"
         style="stop-color:#ffffff;stop-opacity:0;" />
    </linearGradient>
    <linearGradient
       id="linearGradient2265"
       inkscape:collect="always">
      <stop
         id="stop2267"
         offset="0"
         style="stop-color:#000000;stop-opacity:1;" />
      <stop
         id="stop2269"
         offset="1"
         style="stop-color:#000000;stop-opacity:0;" />
    </linearGradient>
    <linearGradient
       id="linearGradient2250"
       inkscape:collect="always">
      <stop
         id="stop2252"
         offset="0"
         style="stop-color:#ffffff;stop-opacity:1;" />
      <stop
         id="stop2254"
         offset="1"
         style="stop-color:#ffffff;stop-opacity:0;" />
    </linearGradient>
    <inkscape:perspective
       id="perspective60"
       inkscape:persp3d-origin="24 : 16 : 1"
       inkscape:vp_z="48 : 24 : 1"
       inkscape:vp_y="0 : 1000 : 0"
       inkscape:vp_x="0 : 24 : 1"
       sodipodi:type="inkscape:persp3d" />
    <linearGradient
       inkscape:collect="always"
       xlink:href="#linearGradient2265"
       id="linearGradient5034"
       gradientUnits="userSpaceOnUse"
       gradientTransform="matrix(0.878099,-0.0173237,0.0173237,0.878099,62.917498,1002.7136)"
       x1="14.017542"
       y1="36.942543"
       x2="15.415793"
       y2="38.268368" />
    <linearGradient
       inkscape:collect="always"
       xlink:href="#linearGradient2257"
       id="linearGradient5038"
       gradientUnits="userSpaceOnUse"
       gradientTransform="matrix(1.007254,-0.02636526,0.02636526,1.007254,62.347222,998.72488)"
       x1="12.004697"
       y1="35.688461"
       x2="10.650805"
       y2="33.194965" />
    <linearGradient
       inkscape:collect="always"
       xlink:href="#linearGradient3087"
       id="linearGradient5043"
       gradientUnits="userSpaceOnUse"
       gradientTransform="matrix(0.87827,0,0,0.87827,63.290799,1003.6134)"
       x1="9.7503242"
       y1="32.28376"
       x2="16.915297"
       y2="39.443218" />
    <linearGradient
       inkscape:collect="always"
       xlink:href="#linearGradient2250"
       id="linearGradient5046"
       gradientUnits="userSpaceOnUse"
       x1="31.177404"
       y1="19.821514"
       x2="40.859177"
       y2="9.6568537"
       gradientTransform="translate(60.753811,998.64569)" />
    <linearGradient
       inkscape:collect="always"
       xlink:href="#linearGradient3077"
       id="linearGradient5049"
       gradientUnits="userSpaceOnUse"
       gradientTransform="matrix(0.87827,0,0,0.87827,63.601314,1004.2344)"
       x1="38.227654"
       y1="13.602527"
       x2="37.53537"
       y2="6.6285896" />
    <linearGradient
       inkscape:collect="always"
       xlink:href="#linearGradient3061"
       id="linearGradient5052"
       gradientUnits="userSpaceOnUse"
       gradientTransform="matrix(0.87826988,0,0,0.87826988,762.91889,655.13378)"
       x1="50.152931"
       y1="-3.6324477"
       x2="25.291086"
       y2="-4.3002653" />
    <linearGradient
       inkscape:collect="always"
       xlink:href="#linearGradient3049"
       id="linearGradient5056"
       gradientUnits="userSpaceOnUse"
       gradientTransform="matrix(0.87827,0,0,0.87827,63.290799,8.25122)"
       x1="19.648342"
       y1="42.253601"
       x2="20.631224"
       y2="6.7758031" />
    <radialGradient
       inkscape:collect="always"
       xlink:href="#linearGradient5067"
       id="radialGradient5065"
       gradientUnits="userSpaceOnUse"
       gradientTransform="matrix(3.7876849e-6,1.2367726,-1.6214336,-1.2202629e-7,1646.0617,962.60675)"
       cx="26.935442"
       cy="998.53558"
       fx="26.935442"
       fy="998.53558"
       r="28" />
    <linearGradient
       inkscape:collect="always"
       xlink:href="#linearGradient3791"
       id="linearGradient5085"
       gradientUnits="userSpaceOnUse"
       gradientTransform="translate(-3.2202149e-7,-2.6203124e-6)"
       x1="23.825031"
       y1="996.26257"
       x2="23.825031"
       y2="1009.0018" />
    <radialGradient
       inkscape:collect="always"
       xlink:href="#linearGradient3803"
       id="radialGradient5087"
       gradientUnits="userSpaceOnUse"
       gradientTransform="matrix(1.31608,-2.209822e-6,-7.2164013e-7,1.1264597,-8.4458991,-128.89039)"
       cx="27.777456"
       cy="1023.252"
       fx="27.777456"
       fy="1023.252"
       r="28" />
    <radialGradient
       inkscape:collect="always"
       xlink:href="#linearGradient5067"
       id="radialGradient5109"
       gradientUnits="userSpaceOnUse"
       gradientTransform="matrix(3.7876849e-6,1.2367726,-1.6214336,-1.2202629e-7,1646.0617,962.60676)"
       cx="26.935442"
       cy="998.53558"
       fx="26.935442"
       fy="998.53558"
       r="28" />
    <radialGradient
       inkscape:collect="always"
       xlink:href="#linearGradient3803"
       id="radialGradient5116"
       gradientUnits="userSpaceOnUse"
       gradientTransform="matrix(1.31608,-2.209822e-6,-7.2164013e-7,1.1264597,-8.4458991,-128.89039)"
       cx="27.777456"
       cy="1023.252"
       fx="27.777456"
       fy="1023.252"
       r="28" />
    <linearGradient
       inkscape:collect="always"
       xlink:href="#linearGradient3791"
       id="linearGradient5119"
       gradientUnits="userSpaceOnUse"
       gradientTransform="translate(-3.2202149e-7,-5.2374998e-6)"
       x1="23.825031"
       y1="996.26257"
       x2="23.825031"
       y2="1009.0018" />
    <linearGradient
       inkscape:collect="always"
       xlink:href="#linearGradient3791"
       id="linearGradient5167"
       gradientUnits="userSpaceOnUse"
       gradientTransform="translate(-3.2202149e-7,-5.2374998e-6)"
       x1="23.825031"
       y1="996.26257"
       x2="23.825031"
       y2="1009.0018" />
    <radialGradient
       inkscape:collect="always"
       xlink:href="#linearGradient3803"
       id="radialGradient5169"
       gradientUnits="userSpaceOnUse"
       gradientTransform="matrix(1.31608,-2.209822e-6,-7.2164013e-7,1.1264597,-8.4458991,-128.89039)"
       cx="27.777456"
       cy="1023.252"
       fx="27.777456"
       fy="1023.252"
       r="28" />
    <linearGradient
       inkscape:collect="always"
       xlink:href="#linearGradient3791"
       id="linearGradient5197"
       gradientUnits="userSpaceOnUse"
       gradientTransform="translate(-3.2202149e-7,-5.2374998e-6)"
       x1="23.825031"
       y1="996.26257"
       x2="23.825031"
       y2="1009.0018" />
    <radialGradient
       inkscape:collect="always"
       xlink:href="#linearGradient3803"
       id="radialGradient5199"
       gradientUnits="userSpaceOnUse"
       gradientTransform="matrix(1.31608,-2.209822e-6,-7.2164013e-7,1.1264597,-8.4458991,-128.89039)"
       cx="27.777456"
       cy="1023.252"
       fx="27.777456"
       fy="1023.252"
       r="28" />
    <radialGradient
       inkscape:collect="always"
       xlink:href="#linearGradient5067"
       id="radialGradient5201"
       gradientUnits="userSpaceOnUse"
       gradientTransform="matrix(3.7876849e-6,1.2367726,-1.6214336,-1.2202629e-7,1646.0617,962.60676)"
       cx="26.935442"
       cy="998.53558"
       fx="26.935442"
       fy="998.53558"
       r="28" />
    <radialGradient
       inkscape:collect="always"
       xlink:href="#linearGradient5067"
       id="radialGradient5204"
       gradientUnits="userSpaceOnUse"
       gradientTransform="matrix(3.7876849e-6,1.2367726,-1.6214336,-1.2202629e-7,1646.0616,962.60674)"
       cx="26.935442"
       cy="998.53558"
       fx="26.935442"
       fy="998.53558"
       r="28" />
    <linearGradient
       inkscape:collect="always"
       xlink:href="#linearGradient3791"
       id="linearGradient5225"
       gradientUnits="userSpaceOnUse"
       gradientTransform="translate(-3.2202149e-7,-5.2374998e-6)"
       x1="23.825031"
       y1="996.26257"
       x2="23.825031"
       y2="1009.0018" />
    <radialGradient
       inkscape:collect="always"
       xlink:href="#linearGradient3803"
       id="radialGradient5227"
       gradientUnits="userSpaceOnUse"
       gradientTransform="matrix(1.31608,-2.209822e-6,-7.2164013e-7,1.1264597,-8.4458991,-128.89039)"
       cx="27.777456"
       cy="1023.252"
       fx="27.777456"
       fy="1023.252"
       r="28" />
    <radialGradient
       inkscape:collect="always"
       xlink:href="#linearGradient3803"
       id="radialGradient5244"
       gradientUnits="userSpaceOnUse"
       gradientTransform="matrix(1.31608,-2.209822e-6,-7.2164013e-7,1.1264597,-8.4458991,-128.89039)"
       cx="27.777456"
       cy="1023.252"
       fx="27.777456"
       fy="1023.252"
       r="28" />
    <linearGradient
       inkscape:collect="always"
       xlink:href="#linearGradient3791"
       id="linearGradient5247"
       gradientUnits="userSpaceOnUse"
       gradientTransform="translate(-3.2202149e-7,-7.8546872e-6)"
       x1="23.825031"
       y1="996.26257"
       x2="23.825031"
       y2="1009.0018" />
    <linearGradient
       inkscape:collect="always"
       xlink:href="#linearGradient3791"
       id="linearGradient5264"
       gradientUnits="userSpaceOnUse"
       gradientTransform="translate(-3.2202149e-7,-7.8546872e-6)"
       x1="23.825031"
       y1="996.26257"
       x2="23.825031"
       y2="1009.0018" />
    <radialGradient
       inkscape:collect="always"
       xlink:href="#linearGradient3803"
       id="radialGradient5266"
       gradientUnits="userSpaceOnUse"
       gradientTransform="matrix(1.31608,-2.209822e-6,-7.2164013e-7,1.1264597,-8.4458991,-128.89039)"
       cx="27.777456"
       cy="1023.252"
       fx="27.777456"
       fy="1023.252"
       r="28" />
    <linearGradient
       inkscape:collect="always"
       xlink:href="#linearGradient3791"
       id="linearGradient3117"
       gradientUnits="userSpaceOnUse"
       gradientTransform="translate(-3.2202149e-7,-7.8546872e-6)"
       x1="23.825031"
       y1="996.26257"
       x2="23.825031"
       y2="1009.0018" />
    <radialGradient
       inkscape:collect="always"
       xlink:href="#linearGradient3803"
       id="radialGradient3119"
       gradientUnits="userSpaceOnUse"
       gradientTransform="matrix(1.31608,-2.209822e-6,-7.2164013e-7,1.1264597,-8.4458991,-128.89039)"
       cx="27.777456"
       cy="1023.252"
       fx="27.777456"
       fy="1023.252"
       r="28" />
    <radialGradient
       inkscape:collect="always"
       xlink:href="#linearGradient5067"
       id="radialGradient3121"
       gradientUnits="userSpaceOnUse"
       gradientTransform="matrix(3.7876849e-6,1.2367726,-1.6214336,-1.2202629e-7,1646.0616,962.60674)"
       cx="26.935442"
       cy="998.53558"
       fx="26.935442"
       fy="998.53558"
       r="28" />
  </defs>
  <sodipodi:namedview
     id="base"
     pagecolor="#ffffff"
     bordercolor="#666666"
     borderopacity="1.0"
     inkscape:pageopacity="0.0"
     inkscape:pageshadow="2"
     inkscape:zoom="1.6074219"
     inkscape:cx="256"
     inkscape:cy="256"
     inkscape:document-units="px"
     inkscape:current-layer="layer1"
     showgrid="false"
     inkscape:window-width="1920"
     inkscape:window-height="1021"
     inkscape:window-x="0"
     inkscape:window-y="27"
     inkscape:window-maximized="1" />
  <metadata
     id="metadata7">
    <rdf:RDF>
      <cc:Work
         rdf:about="">
        <dc:format>image/svg+xml</dc:format>
        <dc:type
           rdf:resource="http://purl.org/dc/dcmitype/StillImage" />
        <dc:title />
      </cc:Work>
    </rdf:RDF>
  </metadata>
  <g
     inkscape:label="Capa 1"
     inkscape:groupmode="layer"
     id="layer1"
     transform="translate(0,-540.36218)">
    <path
       style="fill:#ffffff;fill-opacity:1;fill-rule:nonzero;stroke:none"
       id="path4403"
       d="m -895.17623,1803.8666 -724.52827,0 0,-724.5282 724.52827,0 0,724.5282 z"
       inkscape:connector-curvature="0" />
    <g
       id="g4405"
       transform="matrix(21.344182,0,0,-21.344182,-3185.9406,3757.4997)">
      <g
         id="g4407"
         clip-path="url(#clipPath4409)">
        <g
           id="g4413"
           transform="matrix(34.051544,0,0,29.204712,73.327072,96.323547)" />
      </g>
    </g>
    <g
       id="g4417"
       transform="matrix(21.344182,0,0,-21.344182,-3185.9406,3757.4997)">
      <g
         id="g4419"
         clip-path="url(#clipPath4421)">
        <g
           id="g4425"
           transform="matrix(34.051544,0,0,4.936203,73.327072,91.47673)" />
      </g>
    </g>
    <g
       id="g4429"
       transform="matrix(21.344182,0,0,-21.344182,-3185.9406,3757.4997)">
      <g
         id="g4431"
         clip-path="url(#clipPath4433)">
        <g
           id="g4437"
           transform="matrix(25.629761,0,0,25.011002,78.105164,96.426697)" />
      </g>
    </g>
    <g
       id="g4441"
       transform="matrix(21.344182,0,0,-21.344182,-3185.9406,3757.4997)">
      <g
         id="g4443">
        <g
           id="g4449">
          <g
             id="g4451" />
        </g>
      </g>
    </g>
    <g
       id="g3106"
       transform="matrix(8.7719298,0,0,8.7719298,6.0000007,-8184.885)">
      <g
         transform="translate(0,-2.6171874e-6)"
         id="g5255">
        <rect
           style="fill:url(#linearGradient3117);fill-opacity:1;stroke:none"
           id="rect2985"
           width="57"
           height="57"
           x="0"
           y="995.36218"
           rx="10"
           ry="10" />
        <rect
           ry="9.8245611"
           rx="9.8245611"
           y="995.86218"
           x="0.5"
           height="56"
           width="56"
           id="rect3799"
           style="fill:url(#radialGradient3119);fill-opacity:1;stroke:none" />
        <g
           id="g5249"
           transform="matrix(1.3609048,0,0,1.3609048,-1.2224287,-357.38767)">
          <path
             inkscape:connector-curvature="0"
             id="path4768"
             d="m 19.005238,998.05919 c -4.419381,0.11333 -0.445909,11.96231 -0.445923,11.96231 -4.279498,10.6546 -10.2955142,21.1564 -12.8249511,20.7352 -1.5175607,-0.2528 0.790957,-4.3583 4.9865121,-6.6752 -5.7053036,2.2045 -7.6915418,6.3971 -6.427026,7.2878 3.8759065,2.7298 9.246972,-7.2374 9.693849,-8.2515 3.543396,-1.5555 8.082783,-2.1132 12.202626,-3.0923 0,0 10.87224,5.9286 12.039767,1.2855 1.215813,-4.8353 -10.733037,-2.5573 -10.733037,-2.5573 -2.682091,-1.1518 -6.232003,-5.7403 -7.268454,-9.4069 0.434106,-2.5084 2.63306,-11.38639 -1.223363,-11.28761 z m 0.300519,0.35676 c 1.147218,-0.007 1.465938,2.55475 1.388158,3.94735 -0.119455,2.1388 -1.215615,4.812 -1.215615,4.812 0,0 -1.89807,-8.21037 -0.484695,-8.70111 0.111357,-0.0388 0.214927,-0.0578 0.312152,-0.0578 z m -0.118279,13.52305 c 1.227537,2.9248 3.615286,5.0759 5.979168,7.2432 -3.645487,0.6517 -7.273623,1.4191 -10.791188,2.9663 1.835927,-3.3699 3.842056,-6.716 4.81202,-10.2095 z m 13.152623,7.4662 c 2.78981,-0.013 5.602532,0.3769 5.515802,1.7215 -0.120673,1.8708 -5.323527,0.4508 -8.606197,-1.5548 0.910127,-0.095 1.998737,-0.1619 3.090395,-0.1667 z"
             style="fill:#aa0000;stroke:none" />
          <path
             style="fill:#ffffff;stroke:none"
             d="m 19.353739,998.05919 c -4.419381,0.11334 -0.44591,11.96231 -0.445923,11.96231 -4.279499,10.6546 -10.295515,21.1564 -12.8249515,20.7352 -1.5175608,-0.2528 0.7909569,-4.3583 4.9865125,-6.6752 -5.7053041,2.2045 -7.6915422,6.3971 -6.4270264,7.2878 3.8759063,2.7298 9.2469714,-7.2374 9.6938484,-8.2515 3.543396,-1.5555 8.082783,-2.1132 12.202627,-3.0923 0,0 10.872239,5.9286 12.039766,1.2855 1.215813,-4.8353 -10.733036,-2.5573 -10.733036,-2.5573 -2.682092,-1.1518 -6.232003,-5.7403 -7.268454,-9.4069 0.434106,-2.5084 2.633059,-11.38639 -1.223363,-11.28761 z m 0.300518,0.35676 c 1.147219,-0.007 1.465939,2.55475 1.388159,3.94735 -0.119456,2.1388 -1.215615,4.812 -1.215615,4.812 0,0 -1.89807,-8.21037 -0.484695,-8.70111 0.111356,-0.0388 0.214927,-0.0578 0.312151,-0.0578 z m -0.118278,13.52305 c 1.227536,2.9248 3.615286,5.076 5.979167,7.2432 -3.645487,0.6517 -7.273623,1.4191 -10.791188,2.9663 1.835928,-3.3699 3.842056,-6.716 4.812021,-10.2095 z m 13.152622,7.4662 c 2.78981,-0.013 5.602532,0.3769 5.515802,1.7215 -0.120672,1.8708 -5.323526,0.4508 -8.606196,-1.5548 0.910126,-0.095 1.998736,-0.1619 3.090394,-0.1667 z"
             id="path4781"
             inkscape:connector-curvature="0" />
          <path
             inkscape:connector-curvature="0"
             id="path2140"
             d="m 29.595466,1001.8436 c -0.126945,0.01 -0.259425,0.019 -0.390532,0.045 l -0.446323,0.4129 1.405916,1.339 0.07811,1.1715 -1.048858,0.9596 -1.260862,-0.1339 -1.294335,-1.2162 -0.457481,0.4464 c -0.210936,2.0142 1.896871,3.816 4.061536,2.6109 l 1.651392,1.696 -0.07811,0.078 -0.06695,-0.067 c -0.352792,-0.3921 -1.32718,-0.2139 -1.7295,0.3348 -1.199271,1.641 -3.162217,2.9552 -3.604055,3.113 -0.845483,0.302 -0.749049,1.5384 -0.189687,2.1312 l 0.647168,0.7141 c 0.470098,0.5232 1.775289,0.7568 2.354352,-0.2566 0.252478,-0.4419 0.747702,-1.6828 2.956887,-3.671 0.371035,-0.3336 0.768357,-1.0948 0.435164,-1.5064 l -0.05579,-0.056 c 0.03076,-0.031 0.0344,-0.034 0.06695,-0.067 l 4.396277,4.4967 c 0.274393,0.3137 1.137415,0.556 1.718341,0 0.560981,-0.5368 0.437207,-1.2923 -0.11158,-1.8411 l -4.184274,-4.4966 c 1.105477,-1.1252 2.175823,-2.2205 2.175823,-2.2205 l 1.104648,-0.078 1.718341,-2.399 -1.43939,-1.272 -2.231613,1.9193 0,1.0934 -2.0754,2.1647 -1.573286,-1.696 c 0.753169,-2.0922 -0.62872,-3.866 -2.532881,-3.7491 z"
             style="color:#000000;fill:#aa0000;fill-opacity:1;fill-rule:nonzero;stroke:none;stroke-width:0.9999997;marker:none;visibility:visible;display:inline;overflow:visible" />
          <path
             style="color:#000000;fill:#ffffff;fill-opacity:1;fill-rule:nonzero;stroke:none;stroke-width:0.9999997;marker:none;visibility:visible;display:inline;overflow:visible"
             d="m 29.899515,1001.8436 c -0.126945,0.01 -0.259425,0.019 -0.390532,0.045 l -0.446323,0.4129 1.405916,1.339 0.07811,1.1715 -1.048858,0.9596 -1.260862,-0.1339 -1.294335,-1.2162 -0.457481,0.4464 c -0.210936,2.0142 1.896871,3.816 4.061536,2.6109 l 1.651392,1.696 -0.07811,0.078 -0.06695,-0.067 c -0.352792,-0.3921 -1.32718,-0.2139 -1.7295,0.3348 -1.199271,1.641 -3.162217,2.9552 -3.604054,3.113 -0.845484,0.302 -0.74905,1.5384 -0.189688,2.1312 l 0.647168,0.7141 c 0.470098,0.5232 1.77529,0.7568 2.354352,-0.2566 0.252478,-0.4419 0.747702,-1.6828 2.956887,-3.671 0.371035,-0.3336 0.768357,-1.0948 0.435164,-1.5064 l -0.05579,-0.056 c 0.03076,-0.031 0.0344,-0.034 0.06695,-0.067 l 4.396278,4.4967 c 0.274392,0.3137 1.137414,0.556 1.71834,0 0.560982,-0.5368 0.437207,-1.2923 -0.11158,-1.8411 l -4.184274,-4.4966 c 1.105477,-1.1252 2.175823,-2.2205 2.175823,-2.2205 l 1.104648,-0.078 1.718341,-2.399 -1.43939,-1.272 -2.231612,1.9193 0,1.0934 -2.075401,2.1647 -1.573286,-1.696 c 0.753169,-2.0922 -0.62872,-3.866 -2.532881,-3.7491 z"
             id="path5061"
             inkscape:connector-curvature="0" />
        </g>
      </g>
      <rect
         ry="9.8245611"
         rx="9.8245611"
         y="995.86218"
         x="0.5"
         height="56"
         width="56"
         id="rect5063"
         style="fill:url(#radialGradient3121);fill-opacity:1;stroke:none" />
    </g>
  </g>
</svg>
